<?xml version="1.0" encoding="UTF-8"?>
<svg version="1.1" xmlns="http://www.w3.org/2000/svg" width="1440" height="1440">
<path d="M0 0 C-0.35211505 2.79838799 -0.85032092 3.85878761 -2.93359375 5.82421875 C-3.75988281 6.43910156 -4.58617187 7.05398437 -5.4375 7.6875 C-10.87983423 11.87569746 -15.9827643 16.31253566 -21 21 C-21.81339844 21.75925781 -22.62679687 22.51851562 -23.46484375 23.30078125 C-59.76040786 58.33488816 -79.33560671 110.41864695 -80.39230347 160.31524658 C-81.74217862 256.99082517 -31.10812957 344.95547086 23.9765625 420.8203125 C26.30922128 424.03599668 28.61131905 427.27162228 30.90087891 430.51806641 C39.50419473 442.69036845 48.82381276 454.21774641 58.65527344 465.41796875 C59.57454173 466.49946086 60.46235701 467.60827456 61.32128906 468.73828125 C62.72213685 470.61601095 62.72213685 470.61601095 65 473 C66.32 473 67.64 473 69 473 C70.58357948 470.9727718 71.84036264 469.0818742 73.125 466.875 C73.91488917 465.58404815 74.70795976 464.29503849 75.50390625 463.0078125 C76.11709717 462.01056152 76.11709717 462.01056152 76.74267578 460.99316406 C82.48987503 451.88245831 89.13024694 443.28151882 96 435 C96.75410156 434.06027344 97.50820313 433.12054687 98.28515625 432.15234375 C105.2085013 423.68166084 112.85147854 415.93282984 120.5625 408.1875 C121.09293915 407.65188446 121.6233783 407.11626892 122.16989136 406.56442261 C139.27916673 389.32377356 158.44930627 375.18924547 180 364 C181.65128906 363.11248047 181.65128906 363.11248047 183.3359375 362.20703125 C186.41889295 360.81020833 187.82894972 360.97407197 191 362 C190.40142617 367.17053777 189.6027492 372.20827204 188.5625 377.3125 C176.52155074 440.38519492 194.67089862 501.78204396 221.37597656 558.53662109 C230.3800762 577.73868926 238.97061595 596.96949315 246 617 C246.45681152 618.27617188 246.45681152 618.27617188 246.92285156 619.578125 C259.30750803 654.29289656 267.28603185 690.85751354 270.75146484 727.54150391 C270.9615097 729.61925611 271.23892337 731.69003152 271.53125 733.7578125 C272.34985982 740.1764947 272.43360067 746.66344971 272.625 753.125 C272.64679321 753.85709686 272.66858643 754.58919373 272.69104004 755.34347534 C273.41420993 781.0516119 273.18475605 806.88011116 269.38964844 832.35644531 C269.0241217 834.83634724 268.69714474 837.31785569 268.3828125 839.8046875 C257.16924768 925.22697428 219.60856469 1008.17622041 163.41113281 1073.34619141 C162.05314426 1074.9377164 160.72336744 1076.54888644 159.3984375 1078.16796875 C151.74147997 1087.40243586 143.33363869 1095.88301347 134.875 1104.375 C134.27430695 1104.98086945 133.67361389 1105.58673889 133.05471802 1106.21096802 C126.41098559 1112.89976112 119.73049352 1119.29919164 112.32128906 1125.14404297 C110.08468251 1126.93229318 107.97457735 1128.8039314 105.875 1130.75 C85.07744735 1149.42687197 60.79346245 1164.89707223 36.51416016 1178.58203125 C34.82358422 1179.53550426 33.13579178 1180.49392785 31.45068359 1181.45703125 C-17.05939968 1209.1301399 -70.25500188 1224.64301286 -125 1234 C-126.06734375 1234.18771973 -127.1346875 1234.37543945 -128.234375 1234.56884766 C-131.32184061 1235.05017395 -134.25225759 1235.09719714 -137.375 1235.0625 C-138.96441406 1235.04896484 -138.96441406 1235.04896484 -140.5859375 1235.03515625 C-141.38257813 1235.02355469 -142.17921875 1235.01195312 -143 1235 C-143 1234.01 -143 1233.02 -143 1232 C-141.14257813 1230.47290039 -141.14257813 1230.47290039 -138.53125 1228.84765625 C-137.57508789 1228.24195801 -136.61892578 1227.63625977 -135.63378906 1227.01220703 C-134.08256348 1226.04710205 -134.08256348 1226.04710205 -132.5 1225.0625 C-122.64186639 1218.78624596 -113.17809654 1212.23016915 -104 1205 C-102.515 1203.83404297 -102.515 1203.83404297 -101 1202.64453125 C-94.58780007 1197.49837648 -88.53026261 1191.99695131 -82.51611328 1186.3984375 C-81.02268032 1185.02091995 -79.51307709 1183.66400323 -77.99609375 1182.3125 C-70.51326087 1175.62221093 -63.65834653 1168.50797929 -57 1161 C-56.505 1160.44441406 -56.01 1159.88882812 -55.5 1159.31640625 C-6.62351233 1104.2030751 25.15887541 1033.23695366 33 960 C32.34 960 31.68 960 31 960 C30.7628125 960.50789063 30.525625 961.01578125 30.28125 961.5390625 C19.44730792 982.34815857 4.11660053 1002.56085118 -11.83984375 1019.6640625 C-13.67508299 1021.64864309 -15.44291952 1023.66765598 -17.20703125 1025.71484375 C-21.21060925 1030.30255471 -25.44320155 1034.63528617 -29.75 1038.9375 C-30.54422363 1039.73091797 -31.33844727 1040.52433594 -32.15673828 1041.34179688 C-37.84721868 1046.97318248 -43.68838059 1052.0748039 -50 1057 C-51.85690747 1058.58011808 -53.71091476 1060.16364866 -55.5625 1061.75 C-100.81197615 1099.45789679 -157.20271456 1125.83490745 -214.9375 1137.125 C-216.17951172 1137.37636719 -217.42152344 1137.62773438 -218.70117188 1137.88671875 C-227.43047083 1139.61717656 -236.16528114 1140.93876127 -245 1142 C-246.39424194 1142.16894775 -246.39424194 1142.16894775 -247.81665039 1142.34130859 C-341.55584835 1153.0058729 -439.18891796 1125.60029232 -513.26171875 1067.1875 C-514.16535156 1066.465625 -515.06898438 1065.74375 -516 1065 C-516.85207031 1064.34 -517.70414063 1063.68 -518.58203125 1063 C-524.8628073 1058.09407099 -530.7087831 1052.76722265 -536.54052734 1047.34619141 C-538.77335413 1045.28667202 -541.04429293 1043.27039082 -543.3125 1041.25 C-549.2846409 1035.87888926 -554.82610859 1030.30448644 -560.0625 1024.21484375 C-562.26296454 1021.69939336 -564.5379925 1019.26114948 -566.8125 1016.8125 C-572.26210179 1010.82122093 -577.18031744 1004.49735535 -582 998 C-582.49371094 997.3414502 -582.98742187 996.68290039 -583.49609375 996.00439453 C-609.26265863 961.55526836 -628.45143504 923.13494617 -641 882 C-641.40726318 880.68032227 -641.40726318 880.68032227 -641.82275391 879.33398438 C-646.93402687 862.52582052 -650.18137497 845.31751065 -653 828 C-653.18224121 826.88544434 -653.36448242 825.77088867 -653.55224609 824.62255859 C-656.1220071 808.00477075 -656.27934816 791.40277598 -656.3125 774.625 C-656.31814972 773.02677902 -656.31814972 773.02677902 -656.32391357 771.39627075 C-656.34477085 759.76452523 -656.19037652 748.46217639 -654 737 C-652.68 736.67 -651.36 736.34 -650 736 C-649.59797363 736.5983667 -649.19594727 737.1967334 -648.78173828 737.81323242 C-627.3503013 769.64854673 -603.4191916 799.24742368 -573 823 C-571.49759766 824.19496094 -571.49759766 824.19496094 -569.96484375 825.4140625 C-557.94663725 834.89474373 -545.12454059 843.13811138 -532 851 C-531.00742187 851.61101563 -530.01484375 852.22203125 -528.9921875 852.8515625 C-486.3640335 878.30276992 -435.37913618 893.10955653 -385.96557617 896.00537109 C-383.93421163 896.12519397 -381.9036969 896.25539411 -379.87304688 896.38671875 C-314.30268303 900.48430975 -249.73649853 883.61387294 -193 851 C-191.69023193 850.25314941 -191.69023193 850.25314941 -190.35400391 849.49121094 C-178.5934839 842.75146921 -167.65769459 835.36613023 -157 827 C-156.14148438 826.34257813 -155.28296875 825.68515625 -154.3984375 825.0078125 C-152.24839273 823.3591916 -150.12136762 821.68530872 -148 820 C-147.20078125 819.37480469 -146.4015625 818.74960937 -145.578125 818.10546875 C-130.95763951 806.44801065 -117.11283077 793.24175254 -105 779 C-104.16597656 778.04351563 -103.33195313 777.08703125 -102.47265625 776.1015625 C-95.79805129 768.40183135 -89.76389762 760.39862604 -84 752 C-83.59426758 751.41524902 -83.18853516 750.83049805 -82.77050781 750.22802734 C-51.51950533 706.36068904 -51.51950533 706.36068904 -36 657 C-36.68964844 657.88300781 -37.37929688 658.76601563 -38.08984375 659.67578125 C-46.53228526 670.46771311 -55.03504114 681.10398791 -64.3671875 691.14453125 C-66.68931365 693.66303899 -68.94538536 696.22307741 -71.1875 698.8125 C-74.15573826 702.16373675 -77.26889234 705.11554978 -80.6875 708 C-83.03122853 710.02700846 -85.28072008 712.12999253 -87.53344727 714.2565918 C-94.34893035 720.66767278 -101.45457163 726.46765938 -109 732 C-109.91096436 732.6796582 -109.91096436 732.6796582 -110.84033203 733.37304688 C-158.87023134 769.11052745 -216.99257162 789.97474624 -276 798 C-276.81082031 798.11327637 -277.62164063 798.22655273 -278.45703125 798.34326172 C-344.79193667 807.28491315 -410.49554331 795.74100267 -464.82421875 755.17578125 C-472.61870646 749.22932951 -479.93954046 742.7986378 -487 736 C-487.57814453 735.44376953 -488.15628906 734.88753906 -488.75195312 734.31445312 C-496.04154317 727.25875367 -502.92842 720.151547 -509 712 C-509.83382243 710.92905403 -510.66851731 709.85878697 -511.50390625 708.7890625 C-519.43001422 698.48640907 -525.88858604 687.45701893 -532 676 C-532.41523926 675.22172852 -532.83047852 674.44345703 -533.25830078 673.64160156 C-548.24859382 645.02208212 -556.81812026 612.18376951 -557.6875 579.9375 C-557.70679565 579.26635162 -557.72609131 578.59520325 -557.74597168 577.90371704 C-559.30694265 522.14025673 -542.59973791 467.49842976 -507 424 C-506.55269531 423.45118164 -506.10539063 422.90236328 -505.64453125 422.33691406 C-488.9208014 401.90070357 -488.9208014 401.90070357 -483 401 C-481.33252365 404.71765218 -480.666043 407.95843947 -480.25 412 C-478.2869452 426.58488374 -473.91868907 441.00337395 -467 454 C-466.25169922 455.46566406 -466.25169922 455.46566406 -465.48828125 456.9609375 C-453.29577454 479.45655521 -433.13319193 493.76479322 -408.94921875 500.9921875 C-407.63545199 501.33830356 -406.31882706 501.67369554 -405 502 C-404.25250488 502.18546387 -403.50500977 502.37092773 -402.73486328 502.56201172 C-374.28198031 508.96034308 -345.31444891 501.0173575 -321 486 C-287.71404031 464.12284099 -271.21964452 428.21377175 -261 391 C-260.74508789 390.07638672 -260.49017578 389.15277344 -260.22753906 388.20117188 C-253.3326891 362.68395083 -249.14532989 336.13704271 -246.12329102 309.89672852 C-243.55990897 288.26617949 -239.50561062 266.81565064 -234.27246094 245.67919922 C-232.7331327 239.43128582 -231.52675132 233.41678883 -231 227 C-231.680625 227.43570313 -232.36125 227.87140625 -233.0625 228.3203125 C-245.53878184 235.98526225 -258.54983638 240.55205825 -273 243 C-273.76183594 243.13148438 -274.52367187 243.26296875 -275.30859375 243.3984375 C-309.06662099 248.12073243 -346.07965068 236.90372117 -376 222 C-376 221.01 -376 220.02 -376 219 C-375.31711914 218.96036133 -374.63423828 218.92072266 -373.93066406 218.87988281 C-339.38667403 216.78525561 -306.50778239 209.41207844 -279 187 C-278.15179687 186.32839844 -277.30359375 185.65679687 -276.4296875 184.96484375 C-270.33623595 180.07054083 -264.4476984 174.94325096 -258.55883789 169.80688477 C-254.8205797 166.55301254 -251.04104937 163.36772311 -247.1875 160.25 C-242.82917704 156.72214035 -238.67042013 153.02264204 -234.52734375 149.24609375 C-231.93037607 146.93812402 -229.26595987 144.74444137 -226.5625 142.5625 C-222.75912497 139.48663412 -219.09917348 136.31246834 -215.5 133 C-211.12829537 128.98025464 -206.62213114 125.20011805 -202.00390625 121.46875 C-196.5369753 116.97577164 -191.23324209 112.29253937 -185.89648438 107.64648438 C-181.19904477 103.5682747 -176.46516497 99.53227432 -171.73828125 95.48828125 C-169.98047082 93.98327951 -168.22435554 92.47632297 -166.46875 90.96875 C-165.29171145 89.95828117 -164.11462825 88.94786434 -162.9375 87.9375 C-162.3602417 87.4420166 -161.7829834 86.9465332 -161.18823242 86.43603516 C-156.68531648 82.57603169 -152.15174325 78.75333996 -147.61303711 74.93554688 C-144.34145572 72.17147811 -141.15266887 69.33592138 -138 66.4375 C-105.25984101 36.72686871 -45.70918477 -1.66720431 0 0 Z M-31 648 C-30 650 -30 650 -30 650 Z " fill="#E22125" transform="translate(921,116)"/>
<path d="M0 0 C0.66 0 1.32 0 2 0 C1.67 2.97 1.34 5.94 1 9 C0.67 7.68 0.34 6.36 0 5 C-0.66 5 -1.32 5 -2 5 C-1.125 1.125 -1.125 1.125 0 0 Z " fill="#490A0B" transform="translate(954,1071)"/>
<path d="M0 0 C0.66 0.99 1.32 1.98 2 3 C0.6875 5.5 0.6875 5.5 -1 8 C-1.99 8 -2.98 8 -4 8 C-2.87548273 5.0280615 -1.77706209 2.66559313 0 0 Z " fill="#250506" transform="translate(889,764)"/>
</svg>
